<?xml version="1.0" encoding="UTF-8" standalone="no"?>
<svg
   width="80.231117"
   height="80.848434"
   viewBox="0 0 80.231117 80.848434"
   id="Layer_1"
   version="1.1"
   xml:space="preserve"
   sodipodi:docname="store-verified-shopping-svgrepo-com.svg"
   xmlns:inkscape="http://www.inkscape.org/namespaces/inkscape"
   xmlns:sodipodi="http://sodipodi.sourceforge.net/DTD/sodipodi-0.dtd"
   xmlns="http://www.w3.org/2000/svg"
   xmlns:svg="http://www.w3.org/2000/svg"><defs
     id="defs25" /><sodipodi:namedview
     id="namedview23"
     pagecolor="#505050"
     bordercolor="#ffffff"
     borderopacity="1"
     inkscape:showpageshadow="0"
     inkscape:pageopacity="0"
     inkscape:pagecheckerboard="1"
     inkscape:deskcolor="#505050"
     showgrid="false" /><style
     type="text/css"
     id="style2">
	.st0{fill:#00D566;}
	.st1{opacity:0.15;}
	.st2{fill:#FFFFFF;}
</style><g
     id="g20"
     transform="translate(-19.775,-19.311842)"><path
       class="st0"
       d="m 99.5,52.8 -1.9,4.7 c -0.6,1.6 -0.6,3.3 0,4.9 l 1.9,4.7 c 1.1,2.8 0.2,6 -2.3,7.8 L 93,77.8 c -1.4,1 -2.3,2.5 -2.7,4.1 l -0.9,5 c -0.6,3 -3.1,5.2 -6.1,5.3 l -5.1,0.2 c -1.7,0.1 -3.3,0.8 -4.5,2 l -3.5,3.7 c -2.1,2.2 -5.4,2.7 -8,1.2 L 57.8,96.7 C 56.3,95.8 54.6,95.6 52.9,96 l -5,1.2 c -2.9,0.7 -6,-0.7 -7.4,-3.4 L 38.2,89.2 C 37.4,87.7 36.1,86.5 34.5,86 l -4.8,-1.6 c -2.9,-1 -4.7,-3.8 -4.4,-6.8 l 0.5,-5.1 C 26,70.8 25.5,69.1 24.4,67.8 l -3.2,-4 c -1.9,-2.4 -1.9,-5.7 0,-8.1 l 3.2,-4 c 1.1,-1.3 1.6,-3 1.4,-4.7 l -0.5,-5.1 c -0.3,-3 1.5,-5.8 4.4,-6.8 l 4.8,-1.6 c 1.6,-0.5 2.9,-1.7 3.7,-3.2 l 2.3,-4.6 c 1.4,-2.7 4.4,-4.1 7.4,-3.4 l 5,1.2 c 1.6,0.4 3.4,0.2 4.9,-0.7 l 4.4,-2.6 c 2.6,-1.5 5.9,-1.1 8,1.2 l 3.5,3.7 c 1.2,1.2 2.8,2 4.5,2 l 5.1,0.2 c 3,0.1 5.6,2.3 6.1,5.3 l 0.9,5 c 0.3,1.7 1.3,3.2 2.7,4.1 l 4.2,2.9 c 2.5,2.2 3.5,5.4 2.3,8.2 z"
       id="path4" /><g
       class="st1"
       id="g14"><path
         d="M 43.4,93.5 41.1,88.9 C 40.3,87.4 39,86.2 37.4,85.7 l -4.8,-1.6 c -2.9,-1 -4.7,-3.8 -4.4,-6.8 l 0.5,-5.1 c 0.2,-1.7 -0.3,-3.4 -1.4,-4.7 l -3.2,-4 c -1.9,-2.4 -1.9,-5.7 0,-8.1 l 3.2,-4 c 1.1,-1.3 1.6,-3 1.4,-4.7 l -0.5,-5.1 c -0.3,-3 1.5,-5.8 4.4,-6.8 l 4.8,-1.6 C 39,32.7 40.3,31.5 41.1,30 l 2.3,-4.6 c 0.8,-1.6 2.2,-2.7 3.7,-3.2 -2.7,-0.4 -5.4,1 -6.6,3.5 l -2.3,4.6 c -0.8,1.5 -2.1,2.7 -3.7,3.2 l -4.8,1.6 c -2.9,1 -4.7,3.8 -4.4,6.8 l 0.5,5.1 c 0.2,1.7 -0.3,3.4 -1.4,4.7 l -3.2,4 c -1.9,2.4 -1.9,5.7 0,8.1 l 3.2,4 c 1.1,1.3 1.6,3 1.4,4.7 l -0.5,5.1 c -0.3,3 1.5,5.8 4.4,6.8 l 4.8,1.6 c 1.6,0.5 2.9,1.7 3.7,3.2 l 2.3,4.6 c 1.4,2.7 4.4,4.1 7.4,3.4 l 0.6,-0.1 c -2.2,-0.4 -4.1,-1.6 -5.1,-3.6 z"
         id="path6" /><path
         d="M 60.6,22.5 65,19.9 c 0.4,-0.2 0.8,-0.4 1.2,-0.5 -1.4,-0.2 -2.9,0.1 -4.1,0.8 l -4.4,2.6 c -0.4,0.2 -0.8,0.4 -1.2,0.5 1.4,0.2 2.8,0 4.1,-0.8 z"
         id="path8" /><path
         d="m 81,92 c -0.5,0 -1,0.1 -1.4,0.2 L 83.2,92 c 0.5,0 0.9,-0.1 1.4,-0.2 z"
         id="path10" /><path
         d="m 65,98.9 -4.4,-2.6 c -1.5,-0.9 -3.2,-1.1 -4.9,-0.7 l -0.6,0.1 c 0.9,0.1 1.7,0.4 2.5,0.8 l 4.4,2.6 c 1.7,1 3.6,1.1 5.4,0.5 -0.8,0 -1.6,-0.2 -2.4,-0.7 z"
         id="path12" /></g><polyline
       class="st0"
       points="44,53.6 56.5,67.9 82.1,47.3  "
       id="polyline16" /><path
       class="st2"
       d="m 53.5,75.3 c -1.4,0 -2.8,-0.6 -3.8,-1.7 L 37.2,59.3 c -1.8,-2.1 -1.6,-5.2 0.4,-7.1 2.1,-1.8 5.2,-1.6 7.1,0.4 L 54.1,63.3 76,45.7 c 2.1,-1.7 5.3,-1.4 7,0.8 1.7,2.2 1.4,5.3 -0.8,7 L 56.6,74.2 c -0.9,0.7 -2,1.1 -3.1,1.1 z"
       id="path18" /></g></svg>
